<?xml version="1.0" encoding="UTF-8" standalone="no"?>
<!-- Created with Inkscape (http://www.inkscape.org/) -->

<svg
   width="97mm"
   height="25mm"
   viewBox="0 0 97 25"
   version="1.1"
   id="svg1"
   xmlns="http://www.w3.org/2000/svg"
   xmlns:svg="http://www.w3.org/2000/svg">
  <defs
     id="defs1" />
  <g
     id="layer1">
    <path
       d="m 6.4245701,3.059663 0.5291667,6.3611403 c 0.075635,0.9092137 -0.169851,1.6304117 -0.5095534,2.1541707 -0.3227172,0.506864 -0.7983005,0.810982 -1.4267499,0.912355 0.6454345,0.06758 1.1295104,0.363253 1.4522275,0.887012 0.3227172,0.523759 0.5560551,1.227875 0.4840758,2.103484 l -0.5291667,6.43717 c -0.023532,0.286257 0.059448,0.489969 0.1783439,0.608237 0.1188958,0.118268 4.035375,0.177402 4.341107,0.177402 h 1.146495 v 1.799367 H 6.2971819 c -0.8492559,0 -1.4267499,-0.211194 -1.732482,-0.63358 C 4.2589677,23.444034 4.0477679,22.89241 4.1061017,22.219114 L 4.6352684,16.111405 C 4.7169357,15.16879 4.4654172,14.472546 4.1257149,14.033264 3.8029975,13.593982 1.6804656,13.374341 0.9331205,13.374341 H 0.5 v -1.774023 h 0.4331205 c 0.7473452,0 2.869877,-0.219641 3.1925943,-0.658923 C 4.4654172,10.502113 4.7209105,9.7887539 4.6352684,8.8125668 L 4.1061017,2.7808879 C 4.0470382,2.1076554 4.2589677,1.5559671 4.5646999,1.1335806 4.870432,0.71119412 5.447926,0.50000088 6.2971819,0.50000088 H 11.970832 V 2.2993673 h 0.56069 c 0.305732,0 -5.8097122,0.059134 -5.928608,0.1774023 C 6.4840181,2.5950378 6.4021597,2.7902661 6.4245701,3.059663 Z m 8.0764479,10.669482 h 2.29299 v 4.384372 c 0,0.726505 -0.186836,1.284055 -0.560508,1.672651 -0.373673,0.3717 -0.951167,0.55755 -1.732482,0.55755 h -0.917197 c -0.509553,0 -0.917196,-0.135164 -1.222928,-0.405491 -0.305732,-0.270328 -0.458598,-0.70961 -0.458598,-1.317846 V 17.02376 h 0.10191 v 0.582893 c 0,0.33791 0.06794,0.574446 0.203822,0.70961 0.135881,0.118268 0.348195,0.177402 0.636942,0.177402 h 0.891718 c 0.305732,0 0.509554,-0.05069 0.611465,-0.152059 0.10191,-0.101373 0.152866,-0.295671 0.152866,-0.582894 z m 2.29299,0.836326 h -2.29299 v -4.029567 c 0,-0.304119 -0.05096,-0.498416 -0.152866,-0.5828937 C 14.246241,9.8516376 14.042419,9.8009512 13.736687,9.8009512 h -0.891718 c -0.288747,0 -0.501061,0.067582 -0.636942,0.2027458 -0.135881,0.135163 -0.203822,0.363252 -0.203822,0.684266 v 0.810982 h -0.10191 V 9.6742352 c 0,-0.6082365 0.152866,-1.0475184 0.458598,-1.3178458 0.305732,-0.2703273 0.713375,-0.405491 1.222928,-0.405491 h 0.917197 c 0.781315,0 1.358809,0.1942978 1.732482,0.5828933 0.373672,0.3717001 0.560508,0.9292503 0.560508,1.6726503 z M 9.711214,3.3891244 h 2.292991 V 18.645724 18.77244 20.343718 H 9.711214 Z M 21.176185,20.343718 H 18.883194 V 3.3891244 h 2.292991 z m 4.382147,-5.752904 h -2.292991 v -4.359029 c 0,-0.7433998 0.186836,-1.30095 0.560509,-1.6726501 0.373672,-0.3885955 0.951166,-0.5828933 1.732482,-0.5828933 h 0.917196 c 0.509554,0 0.917196,0.1351637 1.222928,0.405491 0.305733,0.2703273 0.458599,0.7096093 0.458599,1.3178458 v 1.6979936 h -0.101911 v -0.684266 c 0,-0.321014 -0.06794,-0.549102 -0.203821,-0.684266 C 27.715442,9.8938762 27.503128,9.8262944 27.214381,9.8262944 h -0.891719 c -0.305732,0 -0.509554,0.050686 -0.611464,0.1520591 -0.101911,0.084477 -0.152866,0.2787755 -0.152866,0.5828935 z m 4.789803,5.752904 H 28.055144 V 9.7502648 9.5728625 7.9762416 h 2.292991 z m -7.082794,-6.614573 h 2.292991 v 4.029567 c 0,0.287223 0.05095,0.481521 0.152866,0.582894 0.10191,0.101373 0.305732,0.152059 0.611464,0.152059 h 0.891719 c 0.288747,0 0.501061,-0.05913 0.636942,-0.177402 0.13588,-0.135164 0.203821,-0.3717 0.203821,-0.70961 V 16.94773 h 0.101911 v 1.672651 c 0,0.608236 -0.152866,1.047518 -0.458599,1.317846 -0.305732,0.270327 -0.713374,0.405491 -1.222928,0.405491 h -0.917196 c -0.781316,0 -1.35881,-0.18585 -1.732482,-0.55755 -0.373673,-0.388596 -0.560509,-0.946146 -0.560509,-1.672651 z m 11.617836,6.614573 H 32.590186 V 7.9762416 h 2.292991 v 1.5459345 0.1520591 z m 4.789803,0 h -2.292991 v -9.782471 c 0,-0.304118 -0.05096,-0.498416 -0.152866,-0.5828935 C 37.125213,9.8769807 36.921391,9.8262944 36.615659,9.8262944 H 35.72394 c -0.288747,0 -0.501061,0.067582 -0.636942,0.2027456 -0.13588,0.135164 -0.203821,0.363252 -0.203821,0.684266 v 0.810982 H 34.781266 V 9.6995784 c 0,-0.6082365 0.152866,-1.0475185 0.458599,-1.3178458 0.305732,-0.2703273 0.713374,-0.405491 1.222928,-0.405491 h 0.917196 c 0.781316,0 1.35881,0.1942978 1.732482,0.5828933 0.373673,0.3717001 0.560509,0.9292503 0.560509,1.6726501 z m 4.509544,0 H 41.889533 V 3.3891244 h 2.292991 z m 0.407642,-6.462513 h 2.343947 l 2.853499,6.462513 h -2.445857 z m 2.343947,0 h -2.343947 l 2.751589,-5.9049634 h 2.445857 z m 3.744345,9.618478 v -1.799366 h 5.726417 v 1.799366 z M 59.208324,5.8727569 V 17.65734 c 0,0.287223 0.05096,0.48152 0.152867,0.582893 0.10191,0.101373 0.297239,0.152059 0.585986,0.152059 h 0.968152 v 1.951426 h -1.630571 c -0.832271,0 -1.443735,-0.18585 -1.834393,-0.55755 -0.373673,-0.388596 -0.560509,-0.946146 -0.560509,-1.672651 V 5.8727569 Z m 1.707005,2.1034847 V 9.8262944 H 55.717883 V 7.9762416 Z m 0.458595,0 h 2.343947 L 65.603219,18.341606 67.361178,7.9762416 h 2.318469 L 67.055446,21.534848 c -0.169851,0.7434 -0.492568,1.309398 -0.968152,1.697993 -0.458598,0.405491 -1.112525,0.608237 -1.961781,0.608237 h -1.52866 v -1.82471 h 1.044584 c 0.356688,0 0.645435,-0.05913 0.866241,-0.177402 0.237792,-0.101373 0.390658,-0.321014 0.458599,-0.658923 l 0.254776,-1.039071 h -1.248406 z m 16.71338,6.6145724 h -2.292991 v -4.029567 c 0,-0.304118 -0.05095,-0.498416 -0.152866,-0.5828935 C 75.539536,9.8769807 75.335715,9.8262944 75.029983,9.8262944 h -0.891719 c -0.288747,0 -0.501061,0.067582 -0.636942,0.2027456 -0.135881,0.135164 -0.203821,0.363252 -0.203821,0.684266 v 0.810982 H 73.19559 V 9.6995784 c 0,-0.6082365 0.152866,-1.0475185 0.458598,-1.3178458 0.305732,-0.2703273 0.713375,-0.405491 1.222929,-0.405491 h 0.917196 c 0.781315,0 1.358809,0.1942978 1.732482,0.5828933 0.373672,0.3717001 0.560509,0.9292503 0.560509,1.6726501 z m -4.789803,9.250264 H 71.00451 V 7.9762416 h 2.292991 v 1.4699049 0.2534319 z m 2.496812,-10.111933 h 2.292991 v 4.384372 c 0,0.726505 -0.186837,1.284055 -0.560509,1.672651 -0.373673,0.3717 -0.951167,0.55755 -1.732482,0.55755 h -0.917196 c -0.509554,0 -0.917197,-0.135164 -1.222929,-0.405491 -0.305732,-0.270328 -0.458598,-0.70961 -0.458598,-1.317846 V 17.02376 h 0.101911 v 0.582893 c 0,0.33791 0.06794,0.574446 0.203821,0.70961 0.135881,0.118268 0.348195,0.177402 0.636942,0.177402 h 0.891719 c 0.305732,0 0.509553,-0.05069 0.611464,-0.152059 0.101911,-0.101373 0.152866,-0.295671 0.152866,-0.582894 z m 6.573256,-3.218585 v 7.298839 c 0,0.287223 0.05096,0.48152 0.152866,0.582893 0.101911,0.101373 0.305732,0.152059 0.611465,0.152059 h 0.636941 v 1.799367 h -1.273883 c -0.815286,0 -1.418258,-0.18585 -1.808915,-0.55755 -0.373673,-0.388596 -0.560509,-0.946146 -0.560509,-1.672651 v -7.881732 c 0,-0.7433998 0.186836,-1.30095 0.560509,-1.6726501 C 81.0767,8.1705394 81.679672,7.9762416 82.494958,7.9762416 H 83.89623 V 9.775608 H 83.1319 c -0.305733,0 -0.509554,0.050686 -0.611465,0.1520591 -0.10191,0.084477 -0.152866,0.2787749 -0.152866,0.5828929 z m 2.751589,4.029567 V 10.51056 c 0,-0.304118 -0.05096,-0.498416 -0.152866,-0.5828929 C 84.881367,9.8262944 84.686038,9.775608 84.380306,9.775608 H 83.56502 V 7.9762416 h 1.42675 c 0.832271,0 1.435242,0.1942978 1.808915,0.5828933 0.390658,0.3717001 0.585986,0.9292503 0.585986,1.6726501 v 4.308342 z m -0.05096,3.243929 v -1.013728 h 2.242035 v 1.343189 c 0,0.726505 -0.186836,1.284055 -0.560508,1.672651 -0.373673,0.3717 -0.976645,0.55755 -1.808915,0.55755 h -1.375795 v -1.799367 h 0.738853 c 0.322717,0 0.526538,-0.05069 0.611464,-0.152059 0.101911,-0.101373 0.152866,-0.304118 0.152866,-0.608236 z m 2.318468,-4.587118 v 1.672651 H 80.940819 V 13.196938 Z M 89.838409,9.4208033 90.367576,3.059663 C 90.389986,2.7902661 90.308126,2.5950378 90.189232,2.4767696 90.070336,2.3585014 89.858022,2.2993673 89.55229,2.2993673 H 85.230796 V 0.50000088 h 5.264168 c 0.849256,0 1.418257,0.21119324 1.707004,0.63357972 0.305732,0.4223865 0.517661,0.9740748 0.458598,1.6473073 l -0.529167,6.0316789 c -0.08564,0.9761869 0.169852,1.6895462 0.509554,2.1288282 0.339702,0.439282 2.470727,0.658923 3.218072,0.658923 h 0.407643 v 1.774023 h -0.407643 c -0.747345,0 -2.87837,0.219641 -3.218072,0.658923 -0.339702,0.439282 -0.591222,1.135526 -0.509554,2.078141 l 0.529167,6.107709 c 0.05833,0.673296 -0.152866,1.22492 -0.458598,1.647307 -0.288747,0.422386 -0.857748,0.63358 -1.707004,0.63358 h -5.264168 v -1.799367 h 4.321494 c 0.305732,0 0.518046,-0.05913 0.636942,-0.177402 0.118896,-0.118268 0.201875,-0.32198 0.178344,-0.608237 l -0.529167,-6.43717 c -0.07198,-0.875609 0.161358,-1.579725 0.484075,-2.103484 0.322718,-0.523759 0.806793,-0.81943 1.452228,-0.887012 -0.628449,-0.101373 -1.112525,-0.405491 -1.452228,-0.912355 -0.322717,-0.523759 -0.55971,-1.244957 -0.484075,-2.1541707 z"
       id="text2"
       style="font-size:96px;line-height:1;font-family:Teko;-inkscape-font-specification:Teko;letter-spacing:0px;white-space:pre;opacity:1;fill:#000000;stroke-width:0.264691"
       aria-label="{blank_type}" />
  </g>
</svg>
