<?xml version="1.0" encoding="UTF-8" standalone="no"?>
<!-- Created with Inkscape (http://www.inkscape.org/) -->

<svg
   width="30mm"
   height="30mm"
   viewBox="0 0 30 30"
   version="1.1"
   id="svg1"
   xmlns="http://www.w3.org/2000/svg"
   xmlns:svg="http://www.w3.org/2000/svg">
  <defs
     id="defs1" />
  <g
     id="layer1">
    <path
       style="font-size:96px;line-height:0.9;font-family:Teko;-inkscape-font-specification:Teko;letter-spacing:0px;white-space:pre"
       d="m 37.236516,48.590239 v 24.096 q 0,5.184 -1.92,8.16 -1.824,2.88 -5.376,3.456 3.648,0.384 5.472,3.36 1.824,2.976 1.824,7.968 v 24.384001 q 0,1.632 0.672,2.304 0.672,0.672 2.4,0.672 h 4.32 v 6.816 h -7.872 q -4.8,0 -6.528,-2.4 -1.728,-2.4 -1.728,-6.24 V 98.030239 q 0,-5.376 -1.92,-7.872 -1.824,-2.496 -6.048,-2.496 h -1.632 v -6.72 h 1.632 q 4.224,0 6.048,-2.496 1.92,-2.496 1.92,-8.064 v -22.848 q 0,-3.84 1.728,-6.24 1.728,-2.4 6.528,-2.4 h 7.872 v 6.816 h -4.32 q -1.728,0 -2.4,0.672 -0.672,0.672 -0.672,2.208 z m 30.43209,40.416 h 8.64 v 16.608001 q 0,4.128 -2.112,6.336 -2.112,2.112 -6.528,2.112 h -3.456 q -2.88,0 -4.608,-1.536 -1.728,-1.536 -1.728,-4.992 v -6.048 h 0.384 v 2.208 q 0,1.92 0.768,2.688 0.768,0.672 2.4,0.672 h 3.36 q 1.728,0 2.304,-0.576 0.576,-0.576 0.576,-2.208 z m 8.64,3.168 h -8.64 v -15.264 q 0,-1.728 -0.576,-2.208 -0.576,-0.576 -2.304,-0.576 h -3.36 q -1.632,0 -2.4,0.768 -0.768,0.768 -0.768,2.592 v 3.072 h -0.384 v -6.912 q 0,-3.456 1.728,-4.992 1.728,-1.536 4.608,-1.536 h 3.456 q 4.416,0 6.528,2.208 2.112,2.112 2.112,6.336 z m -26.688,-42.336 h 8.64 v 57.792001 0.48 5.952 h -8.64 z m 43.968059,9.408 v 44.640001 q 0,1.632 0.576,2.208 0.576,0.576 2.208,0.576 h 3.648005 v 7.392 h -6.144005 q -4.704,0 -6.912,-2.112 -2.112,-2.208 -2.112,-6.336 V 59.246239 Z m 6.432005,7.968 v 7.008 H 80.436665 v -7.008 z m 9.02398,5.472 v -24.096 q 0,-1.536 -0.672,-2.208 -0.672,-0.672 -2.4,-0.672 h -4.32 v -6.816 h 7.872 q 4.8,0 6.432,2.4 1.728,2.4 1.728,6.24 v 22.848 q 0,5.568 1.92,8.064 1.92,2.496 6.144,2.496 h 1.536 v 6.72 h -1.536 q -4.224,0 -6.144,2.496 -1.92,2.496 -1.92,7.872 v 23.136001 q 0,3.84 -1.728,6.24 -1.632,2.4 -6.432,2.4 h -7.872 v -6.816 h 4.32 q 1.728,0 2.4,-0.672 0.672,-0.672 0.672,-2.304 V 95.630239 q 0,-4.992 1.824,-7.968 1.824,-2.976 5.472,-3.36 -3.552,-0.576 -5.472,-3.456 -1.824,-2.976 -1.824,-8.16 z"
       id="text1"
       transform="matrix(0.26458333,0,0,0.26458333,-4.3407614,-7.2907673)"
       aria-label="{bt}" />
  </g>
</svg>
